# xmcd CD database file
#
# Track frame offsets:
#	150
#	15652
#	37923
#	57746
#	80537
#	98100
#	116828
#	130843
#	144122
#	165517
#	182673
#	200667
#
# Disc length: 2936 seconds
#
# Revision: 0
# Processed by: cddbd v1.5.2PL0 Copyright (c) Steve Scherf et al.
# Submitted via: CDex 1.79
#
DISCID=9e0b760c
DTITLE=Irene Grandi and Stefano Bollani - Irene Grandi and Stefano Bollani
DYEAR=2012
DGENRE=Jazz
TTITLE0=Viva la pappa col pomodoro
TTITLE1=Olhos nos olhos - Occhi negli occhi
TTITLE2=Dream a little dream of me
TTITLE3=Costruire
TTITLE4=Come non mi hai visto mai
TTITLE5=A me me piace 'o blues
TTITLE6=For once in my life
TTITLE7=L'arpa della tua anima
TTITLE8=No surprises
TTITLE9=Roda viva
TTITLE10=La gente e me
TTITLE11=Medo de amar
EXTD=YEAR: 2012
EXTT0=
EXTT1=
EXTT2=
EXTT3=
EXTT4=
EXTT5=
EXTT6=
EXTT7=
EXTT8=
EXTT9=
EXTT10=
EXTT11=
PLAYORDER=
